<svg xmlns="http://www.w3.org/2000/svg" width="235" height="275" fill="none"><g clip-path="url(#a)"><path d="M48.81 58.38c-4.78 4.29-9.21 8.77-13.36 13.4C13 96.81.04 126.5 0 157.32c.01 64.52 52.29 116.82 116.8 116.82 75.88 0 117.3-59.6 117.3-116.82 0-29.34-17.13-62.12-44.1-66.74 22.55 10.33 29.69 43.32 29.7 66.74-.09 51.34-45.29 94.76-102.9 94.76-51.34 0-92.87-43.42-92.97-94.76-.03-21.03 7.88-42.42 22.85-61.84 3.84-4.97 8.12-9.82 12.87-14.49.73-.72 1.55-1.4 2.3-2.11 4.54-4.3 9.4-8.48 14.71-12.44 2.23-1.65 4.52-3.27 6.87-4.85 22.25-14.97 50.19-26.62 82.55-32.83l-16.62 35.17-19.47 41.19-12.82 27.13L89.7 74.77c-.94.67-1.91 1.31-2.82 1.99-6.2 4.61-11.87 9.49-17.02 14.55-.49.48-.95.97-1.42 1.46l48.6 102.43L209.57.2c-10.7.33-21.15 1.12-31.24 2.46C137.42 8.07 101.37 22.1 72 40L48.81 58.38l2.36-2.03-2.37 2.03h.01Z" fill="#FAE86E"/></g><defs><clipPath id="a"><path fill="#fff" d="M0 0h234.1v274.14H0z"/></clipPath></defs></svg>