<svg xmlns="http://www.w3.org/2000/svg" width="52" height="14" fill="none"><path fill="#0A66C2" d="M16.068 7.872v3.732H14.19V8.322c0-1.002-.555-1.42-1.073-1.42-.356-.01-.7.123-.96.37a1.36 1.36 0 0 0-.42.944 1.179 1.179 0 0 0 0 .138v3.25H9.895V5.375h1.771v.88h.024c.186-.382.978-1.015 2.057-1.015s2.321.736 2.321 2.632Zm-9.126 3.732h1.879V5.375H6.942v6.23Zm.94-9.357a1.08 1.08 0 0 0-.995.686 1.106 1.106 0 0 0 .244 1.191 1.084 1.084 0 0 0 1.183.232 1.104 1.104 0 0 0 .668-1.012c0-.288-.113-.563-.314-.766a1.069 1.069 0 0 0-.76-.318l-.026-.013Zm43.618-.8v11.105a.952.952 0 0 1-.275.67.935.935 0 0 1-.665.278H39.555c-.249 0-.488-.1-.664-.278a.952.952 0 0 1-.275-.67V1.448c0-.251.099-.493.275-.67A.935.935 0 0 1 39.555.5H50.56c.25 0 .489.1.665.278a.952.952 0 0 1 .275.67Zm-9.126 3.928h-1.88v6.23h1.88v-6.23Zm.16-2.031a1.117 1.117 0 0 0-.666-1.034 1.092 1.092 0 0 0-1.202.226 1.114 1.114 0 0 0 .755 1.905h.013a1.066 1.066 0 0 0 .767-.298 1.083 1.083 0 0 0 .334-.759v-.04Zm7.087 4.528c0-1.896-1.243-2.632-2.322-2.632s-1.879.633-2.056 1.015h-.024v-.88h-1.772v6.23h1.88v-3.25c0-1 .673-1.444 1.328-1.444.537 0 1.087.417 1.087 1.419v3.274h1.88V7.872ZM2.647 2.396H.5v9.208h5.637V9.708h-3.49V2.396ZM29.49 8.563v.541h-4.564c.004.04.014.08.03.117.155.523.716.964 1.543.964a1.679 1.679 0 0 0 1.38-.607l1.369.862a3.42 3.42 0 0 1-1.249.988 3.389 3.389 0 0 1-1.556.312c-1.801 0-3.396-1.105-3.396-3.226 0-2.12 1.61-3.274 3.34-3.274 1.728 0 3.102 1.167 3.102 3.323Zm-1.88-.75c0-.65-.418-1.187-1.274-1.187-.806 0-1.367.542-1.41 1.186h2.684Zm-4.224-2.438h-2.303l-2.024 2.538h-.038V2.396h-1.879v9.208h1.88V8.625h.037l2.072 2.98h2.354L20.954 8.2l2.432-2.825Zm11.472-2.98h1.879v9.21h-1.772v-.813h-.024c-.236.411-.87.945-1.986.945-1.342 0-2.929-.983-2.929-3.25 0-2.04 1.37-3.237 2.905-3.237a2.543 2.543 0 0 1 1.903.813h.024V2.396Zm.08 6.092a1.567 1.567 0 0 0-.422-1.111 1.542 1.542 0 0 0-1.078-.484h-.04a1.48 1.48 0 0 0-1.061.413 1.507 1.507 0 0 0-.461 1.05v.118a1.531 1.531 0 0 0 .375 1.1 1.508 1.508 0 0 0 1.037.51h.107c.414-.007.81-.178 1.098-.477.29-.299.45-.701.445-1.12Z"/></svg>