<svg xmlns="http://www.w3.org/2000/svg" width="63" height="73" fill="none"><g clip-path="url(#a)"><mask id="b" width="63" height="73" x="0" y="0" maskUnits="userSpaceOnUse" style="mask-type:luminance"><path fill="#fff" d="M62.759 0H0v72.772h62.759V0Z"/></mask><g mask="url(#b)"><path fill="#1D1C1B" d="M13.085 15.497a46.435 46.435 0 0 0-3.581 3.558C3.485 25.699.01 33.58 0 41.76c.003 17.127 14.018 31.01 31.312 31.01 20.343 0 31.447-15.82 31.447-31.01 0-7.788-4.593-16.49-11.823-17.716 6.045 2.742 7.96 11.5 7.962 17.716-.024 13.629-12.141 25.155-27.586 25.155-13.763 0-24.897-11.526-24.924-25.155-.008-5.582 2.113-11.26 6.126-16.415a37.954 37.954 0 0 1 3.45-3.847c.196-.19.416-.371.617-.56a43.741 43.741 0 0 1 3.944-3.302 49.959 49.959 0 0 1 1.841-1.288c5.965-3.973 13.456-7.066 22.13-8.714l-4.455 9.336-5.22 10.934-3.436 7.201-7.338-15.258c-.252.178-.512.348-.756.528a43.682 43.682 0 0 0-4.563 3.863c-.13.127-.254.257-.38.387l13.029 27.19L56.183.054c-2.869.088-5.67.298-8.375.653-10.968 1.436-20.632 5.16-28.506 9.912l-6.217 4.88.633-.54-.635.54h.002Z"/></g></g><defs><clipPath id="a"><path fill="#fff" d="M0 0h63v73H0z"/></clipPath></defs></svg>